<?xml version="1.0" encoding="utf-8"?>
<!-- Generator: Adobe Illustrator 23.0.3, SVG Export Plug-In . SVG Version: 6.00 Build 0)  -->
<svg version="1.1" id="Livello_1" xmlns="http://www.w3.org/2000/svg" xmlns:xlink="http://www.w3.org/1999/xlink" x="0px" y="0px"
	 viewBox="0 0 54.2 55" style="enable-background:new 0 0 54.2 55;" xml:space="preserve">
<style type="text/css">
	.st0{fill:#FFFFFF;}
</style>
<g id="Symbols_1_">
	<g transform="translate(-28.000000, -20.000000)">
		<g id="Group_1_" transform="translate(28.000000, 20.000000)">
			<g id="logo_1_">
				<path id="Path_1_" d="M3.8,0.5h46.5c2,0,3.8,1.7,3.8,3.8v46.5c0,2-1.7,3.8-3.8,3.8H3.8c-2,0-3.8-1.7-3.8-3.8V4.3
					C0,2.2,1.7,0.5,3.8,0.5"/>
				<path class="st0" d="M14.3,24.7h4.1c0.6,0,1.1,0.5,1.1,1.1v21c0,0.6-0.5,1.1-1.1,1.1h-4.1c-0.6,0-1.1-0.5-1.1-1.1v-21
					C13.1,25.2,13.6,24.7,14.3,24.7"/>
				<path class="st0" d="M13.1,19.9c0-1.8,1.5-3.3,3.3-3.3s3.3,1.5,3.3,3.3s-1.5,3.3-3.3,3.3C14.5,23.2,13.1,21.7,13.1,19.9"/>
				<path class="st0" d="M35.7,24.7h4.1c0.6,0,1.1,0.5,1.1,1.1v21c0,0.6-0.5,1.1-1.1,1.1h-4.1c-0.6,0-1.1-0.5-1.1-1.1v-21
					C34.6,25.2,35.1,24.7,35.7,24.7"/>
				<path class="st0" d="M34.4,19.9c0-1.8,1.5-3.3,3.3-3.3s3.3,1.5,3.3,3.3s-1.5,3.3-3.3,3.3S34.4,21.7,34.4,19.9"/>
				<path class="st0" d="M39.9,13.9c0,0,0.3-0.5,0-1.7c-0.8-3.7-4.1-6.7-8-6.7c-4.6,0-8.3,3.7-8.3,8.2v33.2c0,0.5,0.5,1.1,1.1,1.1
					h4.1c0.6,0,1.1-0.6,1.1-1.1V32.2c0-0.4,0.3-0.8,0.8-0.8c0.6,0,1.1-0.5,1.1-1.1v-4.8c0-0.6-0.5-1.1-1.1-1.1
					c-0.4,0-0.8-0.3-0.8-0.8v-9.8c0-1.3,1-2.2,2.2-2.2c1.1,0,2,0.8,2.2,1.9v0.1c0.1,0.4,0.4,0.6,0.8,0.6h4.1l0,0
					C39.2,14.2,39.7,14.2,39.9,13.9z"/>
			</g>
		</g>
	</g>
</g>
</svg>
